<svg xmlns="http://www.w3.org/2000/svg" xml:space="preserve" fill-rule="evenodd" stroke-linejoin="round" stroke-miterlimit="2" clip-rule="evenodd" viewBox="0 0 583 160"><g fill-rule="nonzero"><path d="M193.037 35.83h8.95l13.246 39.012 13.161-39.012h8.853V81.97h-5.938V54.747c0-.965.022-2.52.065-4.663.043-2.197.064-4.555.064-7.02L218.282 81.97h-6.19l-13.246-38.905v1.394c0 1.125.027 2.893.075 5.198.054 2.304.08 4.019.08 5.09V81.97h-5.964V35.83ZM239.964 35.83h7.288l13.247 22.185L273.75 35.83h7.314L263.64 63.374V81.97h-6.249V63.374L239.964 35.83Z"/></g><g fill-rule="nonzero"><path d="M315.73 77.186c-3.456 3.161-7.871 4.77-13.251 4.77-6.656 0-11.891-2.144-15.696-6.431-3.81-4.287-5.718-10.182-5.718-17.63 0-8.092 2.165-14.309 6.5-18.703 3.767-3.804 8.564-5.68 14.383-5.68 7.786 0 13.477 2.519 17.078 7.663 1.989 2.84 3.055 5.734 3.205 8.628h-9.673c-.627-2.198-1.43-3.912-2.416-5.038-1.758-1.982-4.368-3-7.819-3-3.515 0-6.29 1.393-8.322 4.233-2.03 2.84-3.044 6.86-3.044 12.057 0 5.198 1.072 9.056 3.216 11.682 2.148 2.572 4.876 3.858 8.182 3.858 3.392 0 5.975-1.125 7.754-3.322.987-1.179 1.801-3 2.45-5.359h9.576c-.836 5.037-2.97 9.11-6.404 12.272ZM346.769 81.955c-6.613 0-11.666-1.822-15.166-5.412-4.688-4.394-7.03-10.771-7.03-19.077 0-8.467 2.342-14.844 7.03-19.078 3.5-3.644 8.553-5.412 15.166-5.412 6.618 0 11.671 1.768 15.17 5.412 4.668 4.234 6.999 10.61 6.999 19.078 0 8.306-2.331 14.683-6.999 19.077-3.499 3.59-8.552 5.412-15.17 5.412Zm9.142-12.432c2.24-2.84 3.36-6.86 3.36-12.057 0-5.198-1.126-9.217-3.376-12.058-2.251-2.84-5.295-4.233-9.126-4.233-3.826 0-6.886 1.393-9.164 4.233-2.283 2.84-3.424 6.86-3.424 12.058 0 5.198 1.141 9.217 3.424 12.057 2.278 2.84 5.338 4.233 9.164 4.233 3.831 0 6.88-1.393 9.142-4.233ZM381.954 80.669h-9.008v-46.3h14.067l8.413 36.386 8.354-36.386h13.906v46.3h-9.008V49.374c0-.911.011-2.197.032-3.805.022-1.607.033-2.894.033-3.751l-8.762 38.851h-9.388l-8.698-38.851c0 .857.011 2.144.032 3.751.022 1.608.027 2.894.027 3.805v31.295ZM443.108 64.003h-9.828V80.67h-9.608v-46.3h20.16c4.646 0 8.354 1.18 11.114 3.59 2.765 2.412 4.147 6.056 4.147 11.093 0 5.466-1.382 9.325-4.147 11.575-2.76 2.25-6.71 3.376-11.838 3.376Zm4.523-9.645c1.254-1.072 1.886-2.84 1.886-5.252 0-2.411-.637-4.126-1.902-5.144-1.265-1.019-3.038-1.555-5.321-1.555h-9.014v13.665h9.014c2.283 0 4.062-.59 5.337-1.714ZM485.726 71.13h-17.051l-3.205 9.539h-10.106l16.515-46.3h10.927l16.387 46.3h-10.487l-2.98-9.539Zm-2.7-7.93-5.777-18.22-5.97 18.22h11.747ZM539.282 80.669h-9.673l-18.9-32.903V80.67h-9.013v-46.3h10.138l18.434 32.314V34.369h9.014v46.3ZM582.441 34.37 566.96 63.252v17.416h-9.673V63.253l-16.012-28.884h11.398l9.609 20.15 9.2-20.15h10.96Z"/></g><g fill-rule="nonzero"><path d="M195.717 95.044c.049-1.35.282-2.332.702-2.945.755-1.105 2.21-1.657 4.37-1.657h.629c.214.03.46.03.736.061v2.946c-.338 0-.58-.03-.727-.03h-.424c-.982 0-1.57.245-1.76.736-.194.521-.29 1.81-.29 3.896h3.201v2.547h-3.237v16.63h-3.2v-16.63h-2.68v-2.547h2.68v-3.007ZM203.387 97.96h3.075v3.344c.252-.645.868-1.442 1.85-2.363.985-.951 2.117-1.411 3.4-1.411.058 0 .16 0 .304.03.144 0 .39.031.74.062v3.436c-.194-.061-.372-.061-.532-.092h-.53c-1.63 0-2.885.522-3.76 1.565-.874 1.043-1.313 2.24-1.313 3.62v11.078h-3.234v-19.27ZM221.736 97.53c1.366 0 2.691.337 3.974.982 1.282.613 2.258 1.472 2.93 2.485.647.951 1.077 2.086 1.295 3.375.19.89.288 2.301.288 4.265H216.11c.058 1.933.521 3.529 1.384 4.695.862 1.196 2.2 1.78 4.01 1.78 1.688 0 3.038-.553 4.044-1.688a5.552 5.552 0 0 0 1.224-2.24h3.182c-.086.706-.365 1.503-.837 2.363a9.344 9.344 0 0 1-1.59 2.147c-.985.952-2.2 1.596-3.651 1.933-.78.185-1.66.277-2.642.277-2.396 0-4.43-.86-6.097-2.608-1.663-1.75-2.497-4.204-2.497-7.334 0-3.099.837-5.584 2.516-7.517 1.678-1.933 3.872-2.915 6.581-2.915Zm5.161 8.53c-.132-1.412-.439-2.516-.917-3.375-.887-1.535-2.369-2.332-4.443-2.332-1.485 0-2.731.552-3.737 1.626-1.007 1.074-1.54 2.424-1.602 4.08h10.7ZM240.373 97.53c1.366 0 2.691.337 3.974.982 1.283.613 2.258 1.472 2.93 2.485.648.951 1.077 2.086 1.295 3.375.19.89.285 2.301.285 4.265h-14.11c.057 1.933.52 3.529 1.383 4.695.862 1.196 2.2 1.78 4.01 1.78 1.688 0 3.038-.553 4.044-1.688a5.546 5.546 0 0 0 1.222-2.24h3.181c-.082.706-.362 1.503-.834 2.363a9.264 9.264 0 0 1-1.593 2.147c-.981.952-2.197 1.596-3.648 1.933-.78.185-1.66.277-2.642.277-2.4 0-4.43-.86-6.097-2.608-1.666-1.75-2.497-4.204-2.497-7.334 0-3.099.837-5.584 2.516-7.517 1.678-1.933 3.872-2.915 6.581-2.915Zm5.158 8.53c-.132-1.412-.435-2.516-.914-3.375-.89-1.535-2.369-2.332-4.443-2.332-1.485 0-2.73.552-3.737 1.626-1.01 1.074-1.54 2.424-1.602 4.08h10.696ZM251.082 90.81h3.237v26.41h-3.237zM264.972 115.142c2.145 0 3.615-.828 4.413-2.455.798-1.595 1.196-3.405 1.196-5.4 0-1.81-.288-3.252-.865-4.388-.908-1.78-2.48-2.67-4.71-2.67-1.976 0-3.415.768-4.314 2.271-.899 1.504-1.347 3.345-1.347 5.462 0 2.056.448 3.774 1.347 5.124.9 1.381 2.326 2.056 4.28 2.056Zm.126-17.735c2.48 0 4.578.828 6.29 2.485 1.716 1.657 2.572 4.081 2.572 7.303 0 3.1-.755 5.676-2.265 7.702-1.51 2.025-3.854 3.037-7.03 3.037-2.647 0-4.752-.89-6.311-2.7-1.559-1.78-2.335-4.204-2.335-7.21 0-3.253.82-5.83 2.46-7.733 1.642-1.933 3.849-2.884 6.62-2.884ZM282.763 97.622c1.51 0 2.829.368 3.955 1.135.61.399 1.233 1.013 1.869 1.81v-2.424h2.985v17.52c0 2.455-.359 4.358-1.08 5.8-1.34 2.608-3.875 3.897-7.603 3.897-2.075 0-3.817-.46-5.232-1.381-1.414-.92-2.206-2.393-2.375-4.357h3.293c.153.859.466 1.534.932 1.994.734.706 1.884 1.074 3.452 1.074 2.483 0 4.106-.859 4.873-2.639.457-1.012.666-2.853.629-5.492-.648.982-1.424 1.688-2.335 2.179-.912.49-2.117.736-3.615.736-2.086 0-3.912-.767-5.474-2.24-1.565-1.473-2.347-3.927-2.347-7.333 0-3.222.789-5.738 2.366-7.548 1.574-1.81 3.476-2.731 5.707-2.731Zm5.824 9.88c0-2.363-.491-4.142-1.473-5.278-.982-1.166-2.237-1.749-3.759-1.749-2.277 0-3.835 1.074-4.673 3.222-.445 1.135-.666 2.608-.666 4.48 0 2.148.442 3.805 1.323 4.94.88 1.135 2.065 1.688 3.55 1.688 2.325 0 3.96-1.044 4.909-3.13.525-1.197.789-2.578.789-4.173ZM302.244 115.142c2.145 0 3.617-.828 4.415-2.455.795-1.595 1.194-3.405 1.194-5.4 0-1.81-.286-3.252-.862-4.388-.912-1.78-2.483-2.67-4.71-2.67-1.98 0-3.415.768-4.314 2.271-.9 1.504-1.35 3.345-1.35 5.462 0 2.056.45 3.774 1.35 5.124.899 1.381 2.322 2.056 4.277 2.056Zm.126-17.735c2.482 0 4.578.828 6.293 2.485 1.715 1.657 2.571 4.081 2.571 7.303 0 3.1-.755 5.676-2.264 7.702-1.513 2.025-3.854 3.037-7.03 3.037-2.651 0-4.753-.89-6.312-2.7-1.558-1.78-2.338-4.204-2.338-7.21 0-3.253.823-5.83 2.464-7.733 1.642-1.933 3.848-2.884 6.616-2.884ZM314.014 113.301h3.759v3.918h-3.759zM321.63 97.96h3.2v2.73c.767-.92 1.46-1.626 2.083-2.056 1.068-.736 2.28-1.104 3.633-1.104 1.535 0 2.768.399 3.704 1.135.528.43 1.006 1.074 1.439 1.902.718-1.012 1.565-1.78 2.534-2.27.97-.522 2.062-.767 3.271-.767 2.59 0 4.351.95 5.287 2.823.503 1.012.755 2.362.755 4.05v12.826h-3.363V103.85c0-1.29-.32-2.179-.96-2.64-.642-.49-1.424-.736-2.348-.736-1.27 0-2.362.43-3.28 1.289-.917.86-1.374 2.27-1.374 4.265v11.2h-3.293v-12.58c0-1.29-.153-2.24-.466-2.854-.491-.89-1.409-1.35-2.75-1.35-1.224 0-2.334.49-3.335 1.442-1 .92-1.503 2.639-1.503 5.124v10.218h-3.234v-19.27ZM358.478 97.53c1.365 0 2.69.337 3.973.982 1.283.613 2.259 1.472 2.93 2.485.648.951 1.08 2.086 1.295 3.375.19.89.289 2.301.289 4.265H352.85c.062 1.933.522 3.529 1.384 4.695.865 1.196 2.2 1.78 4.01 1.78 1.691 0 3.038-.553 4.045-1.688a5.516 5.516 0 0 0 1.224-2.24h3.182c-.083.706-.362 1.503-.838 2.363a9.344 9.344 0 0 1-1.59 2.147c-.981.952-2.2 1.596-3.65 1.933-.78.185-1.66.277-2.643.277-2.396 0-4.427-.86-6.093-2.608-1.666-1.75-2.501-4.204-2.501-7.334 0-3.099.84-5.584 2.52-7.517 1.674-1.933 3.868-2.915 6.578-2.915Zm5.16 8.53c-.131-1.412-.438-2.516-.917-3.375-.887-1.535-2.369-2.332-4.44-2.332-1.488 0-2.734.552-3.74 1.626-1.006 1.074-1.54 2.424-1.602 4.08h10.7Z"/></g><path d="M144.21 76.706c-1.701-8.804-6.068-19.931-10.104-24.464-.985-1.104-1.98-1.873-2.725-2.221-.478-.225-.899-.3-1.22-.276-.442.036-.78.225-1.02.525-.19.237-.333.57-.333 1.033 0 .105.035.354.158.705.272.775 1.038 2.515 1.937 4.37 3.066 6.322 4.262 10.728 6.653 24.29 3.02 17.13 2.963 21.99-.738 29.188-2.92 5.676-14.185 18.385-19.916 22.473-1.784 1.272-9.932 4.595-22.108 9.065-6.486 2.377-12.119 3.142-20.822 2.848-8.279-.282-12.276-1.107-18.72-3.887-9.931-4.286-18.83-12.352-25.588-23.157-2.727-4.362-5.355-7.748-9.354-12.031-2.98-7.684-4.62-16.07-4.62-24.85a68.74 68.74 0 0 1 3.616-22.084 167.62 167.62 0 0 0 3.918-7.576c2.255-4.661 3.467-6.492 6.364-9.578 1.675-1.783 3.1-3.512 3.606-4.325.082-.132.146-.255.194-.366l.026-.018c1.348-.874 6.553-3.377 10.651-4.806 1.66-.576 3.122-.99 4.03-.99 2.71 0 10.605-.37 17.543-.826 22.232-1.456 32.411.444 46.415 8.768 3.7 2.2 5.551 3.16 6.422 3.299.56.09.943-.04 1.216-.229.371-.26.641-.735.641-1.491 0-.177-.038-.406-.15-.67-.132-.309-.402-.741-.797-1.254-1.912-2.48-7.03-7.315-10.42-9.65-7.587-5.23-12.847-6.553-29.364-7.184-5.687-.216-10.583-.48-11.66-.627a1.802 1.802 0 0 0-.076-.012l.066.024a4.32 4.32 0 0 0-.674-.165c-1.125-.18-3.986-.49-7.2-.768-2.379-.204-4.429-.325-6.364-.334a62.091 62.091 0 0 1 8.124-3.118h.003c9.664-.925 15.535-.865 22.703.228 20.369 3.107 33.31 10.16 46.88 25.562 2.618 2.971 4.058 4.721 5.253 6.645 4.363 8.402 7.036 17.875 7.554 27.934Zm-16.021 17.736c-.513.531-2.31 3.518-3.965 6.652-3.796 7.183-7.023 11.079-13.907 16.797-5.683 4.721-8.946 7.543-10.578 9.17-.806.804-1.249 1.369-1.434 1.732-.351.681-.113 1.143.01 1.315.197.27.508.489 1.009.42.129-.021.328-.075.568-.222.218-.135.553-.403.974-.799.784-.735 4.97-3.833 9.298-6.892 4.597-3.244 9.604-7.29 11.647-9.404 4.28-4.424 8.47-10.736 9.692-14.549.577-1.8.702-3.175.534-3.974-.13-.621-.434-1.023-.782-1.248-.37-.24-.835-.334-1.394-.162-.446.135-1.024.492-1.672 1.164ZM70.776 41.761c-4.838.828-10.58 2.668-15.415 4.94-14.738 6.928-23.89 21.807-23.878 38.88.01 13.643 6.3 25.955 19.753 38.418 2.834 2.627 4.461 3.971 4.812 4.121.317.136.56.1.701.063a.984.984 0 0 0 .62-.465c.096-.162.278-.534.008-1.053-.203-.39-1.619-2.017-4.305-4.821-6.164-6.426-9.844-11.625-12.614-17.848-2.462-5.532-2.98-8.044-2.97-14.377.015-10.83 4.02-20.358 12.024-28.654 11.386-11.8 23.706-15.735 38.855-12.376 4.208.934 6.668 1.225 7.66 1.006.631-.138.964-.462 1.13-.787.148-.288.2-.63.083-1.03-.087-.296-.291-.639-.653-.98-.522-.49-1.465-1.06-2.698-1.63-3.778-1.739-10.421-3.612-14.795-3.897-2.252-.147-5.833.063-8.318.49ZM63.46 111.78c0 .23.061.5.226.795.192.34.577.771 1.127 1.228 1.507 1.245 4.368 2.842 6.71 3.59 2.096.672 4.852 1.05 7.085 1.104 1.696.042 3.11-.132 3.807-.444.736-.33 1.003-.861 1.003-1.36 0-.621-.245-1.083-.859-1.408-.423-.225-1.209-.366-2.53-.366-3.043 0-7.108-1.155-10.605-2.983-1.603-.838-2.792-1.342-3.583-1.534-.49-.12-.878-.13-1.162-.081a1.44 1.44 0 0 0-.893.501 1.45 1.45 0 0 0-.326.958Zm39.329-59.499c-.11.183-.259.64.023 1.27.333.744 1.51 2.45 3 4.268 7 8.534 8.59 12.07 8.917 20.18.26 6.457-.264 9.66-2.346 13.922-1.869 3.827-3.676 6.126-10.365 13.321-2.877 3.095-4.625 5.214-5.284 6.403-.305.549-.414.987-.414 1.284 0 .31.09.562.225.76.232.345.67.642 1.42.567.65-.066 1.832-.52 3.516-1.402 6.356-3.332 12.291-8.747 15.692-14.303 3.547-5.793 4.658-14.95 2.894-24.517-1.414-7.675-6.095-15.879-11.626-20.408-1.71-1.402-2.876-2.083-3.639-2.23-.941-.18-1.57.14-2.013.885Zm-26.452 10.37c-6.201 2.225-9.942 5.68-12.935 11.983-1.557 3.275-1.688 3.897-1.688 9.218 0 5.211.156 5.995 1.556 8.966 2.807 5.965 10.112 11.824 15.609 12.586 1.2.168 1.969.045 2.336-.15.479-.255.683-.633.713-1.063.024-.342-.104-.834-.598-1.356-.574-.61-1.827-1.468-3.73-2.444-4.282-2.194-7.672-5.291-9.273-8.542-1.587-3.218-1.63-9.017-.092-12.253 2.296-4.83 9.402-10.253 14.484-11.043 1.833-.285 3.895.444 5.593 1.675 1.704 1.234 3.06 2.987 3.397 4.848.959 5.3-4.012 10.373-10.022 10.373-2.687 0-4.593-1.254-5.324-3.073-.742-1.843-.261-4.182 1.637-6.235.57-.618.953-1.077 1.151-1.372.17-.252.25-.453.283-.582.14-.567-.108-.906-.375-1.113-.164-.127-.684-.385-1.441.018-1.554.828-3.515 3.572-4.174 5.955-.652 2.356-.091 4.742 1.325 6.753 2.024 2.876 5.828 4.974 10.144 4.971 8.903-.009 15.805-8.278 13.984-16.713-1.96-9.074-13.163-14.774-22.56-11.406Zm-.067-11.258c-1.616.264-5.163 1.633-8.207 3.188-4.604 2.35-5.938 3.355-9.993 7.57-7.953 8.257-10.935 15.206-10.433 24.022.185 3.247.837 6.657 1.557 8.638.402 1.105.906 1.82 1.304 2.074h.001c.26.166.521.199.773.15.241-.047.603-.198.824-.693.202-.453.395-2.014.398-4.046.01-10.47 2.943-17.34 10.905-25.634 5.054-5.265 9.758-7.459 17.143-8 6.253-.456 11.606 1.282 16.32 5.31 2.524 2.159 4.866 6.085 6.21 9.84.872 2.437 1.333 4.8 1.081 6.538-.708 4.895-4.2 9.695-11.549 16.208-1.187 1.05-1.864 2.005-2.073 2.66-.219.69-.068 1.227.26 1.609.272.315.744.582 1.49.582.542 0 1.552-.351 2.76-1.006 2.422-1.317 5.866-3.818 7.83-5.838 6.575-6.762 8.108-16.506 4.124-26.82-1.563-4.049-5.031-8.35-8.28-10.307-2.916-1.756-10.136-4.47-14.873-5.793-2.222-.618-3.956-.892-4.593-.756-.153.033-1.493.26-2.98.504ZM59.822 33.545c-19.925 2.99-33.579 13.72-39.635 31.079-2.807 8.047-3.278 16.854-1.433 27.426l.631 3.617a.997.997 0 0 0 1.048.825.998.998 0 0 0 .937-.948l.305-6.466c.374-7.94 1.773-13.17 5.768-21.654 3.345-7.104 7.301-12.573 12.094-16.68 6.408-5.493 10.888-7.369 23.763-10.091 10.264-2.17 15.368-2.323 24.28-.708 2.78.504 5.256.822 6.232.831.675.006 1.045-.25 1.151-.36.286-.294.414-.622.434-.955.031-.498-.237-1.161-1.068-1.759-1.536-1.107-5.573-2.506-11.201-3.722-6.772-1.461-15.377-1.627-23.306-.435ZM123.71 66.03c2.509 5.91 3.207 8.116 4.19 13.276.502 2.641 1.082 4.896 1.427 5.691.332.768.916.9 1.121.9.276 0 .91-.159 1.118-1.032.173-.73.25-2.825.153-5.562-.173-4.92-.44-6.282-1.661-9.029-1.29-2.9-2.712-5.298-3.756-6.48-.697-.79-1.379-1.093-1.806-1.093-.45 0-.76.144-.973.33-.254.228-.457.561-.418 1.117.024.345.204.933.605 1.882ZM108.355 48.1c0 .168.058.474.292.84.369.577 1.405 1.723 2.644 2.966 1.807 1.81 4.045 3.84 5.123 4.58.512.352.928.457 1.119.457.684 0 1.128-.243 1.396-.553.295-.339.46-.834.3-1.51-.152-.636-.697-1.611-1.704-2.875-1.404-1.768-3.687-3.569-5.426-4.523-.866-.478-1.627-.745-2.13-.78-.585-.043-.998.158-1.258.44a1.367 1.367 0 0 0-.356.958ZM67.933 20.725l.105.042c.034.015.064.03.08.04l-.185-.082Z"/><path d="M79.993-.02C35.842-.02-.012 35.834-.012 79.985c0 44.151 35.854 80.005 80.005 80.005 44.151 0 80.005-35.854 80.005-80.005 0-44.151-35.854-80.005-80.005-80.005Zm0 6.638c40.493 0 73.367 32.874 73.367 73.367s-32.874 73.367-73.367 73.367S6.626 120.478 6.626 79.985 39.5 6.618 79.993 6.618Z"/></svg>